<svg width="214" height="76" viewBox="0 0 214 76" fill="none" xmlns="http://www.w3.org/2000/svg">
<path d="M52.449 26.5376C58.705 20.249 64.905 14.027 71.0868 7.78668C71.6508 7.21752 72.024 6.9346 72.7612 7.63916C76.5496 11.2596 79.3094 15.4812 80.2446 20.7128C81.5204 27.8502 79.902 34.263 75.1674 39.8048C72.1622 43.3226 68.4074 45.647 63.9642 46.8614C63.8128 46.9028 63.6774 47.0038 63.5244 47.0824C63.6172 47.6184 64.0788 47.6736 64.4232 47.8184C69.9748 50.1556 75.53 52.4848 81.0916 54.7976C81.8328 55.1058 82.2326 55.4164 81.857 56.3414C80.267 60.2558 78.2008 63.828 74.935 66.5906C71.3482 69.6244 67.2494 71.4426 62.567 71.8874C55.962 72.515 50.1886 70.525 45.2812 66.114C41.3188 62.5522 38.9846 58.0412 38.1932 52.7386C37.747 49.7488 37.8482 46.7904 38.6324 43.8618C38.7128 43.5614 38.8046 43.2148 38.276 42.773C29.0514 52.0486 19.8104 61.3406 10.5842 70.6176C3.82298 65.2248 0.351702 56.6758 2.23856 48.0102C4.20572 38.976 9.9722 33.4388 18.5828 30.6538C18.4442 29.871 17.8324 29.7748 17.3364 29.5648C11.941 27.2786 6.54694 24.9888 1.13936 22.732C0.489242 22.4608 0.230682 22.2126 0.514862 21.4702C2.64396 15.9076 5.93622 11.3148 11.2698 8.4566C17.6076 5.0603 24.1412 4.64504 30.7812 7.46898C37.9348 10.5112 42.252 15.999 44.0092 23.5384C44.7708 26.807 44.6604 30.1144 43.9022 33.389C43.7928 33.8614 43.585 34.3172 43.894 35.1152C46.7904 32.2112 49.5892 29.4052 52.449 26.5376Z" fill="white"/>
<path d="M169.227 64.0008L185.103 43.6728L169.227 23.0928H181.407L191.402 36.1968L200.894 23.0928H212.99L197.198 43.6728L212.99 64.0008H200.894L190.73 50.8968L181.407 64.0008H169.227Z" fill="white"/>
<path d="M152.557 9.1484H160.033V64.0004H150.121V20.9924C148.637 21.6644 147.181 22.1824 145.753 22.5464C144.325 22.9104 142.897 23.0924 141.469 23.0924V13.6004C143.373 13.4044 145.221 12.9704 147.013 12.2984C148.805 11.5984 150.653 10.5484 152.557 9.1484Z" fill="white"/>
<path d="M122.616 9.1484H130.092V64.0004H120.18V20.9924C118.696 21.6644 117.24 22.1824 115.812 22.5464C114.384 22.9104 112.956 23.0924 111.528 23.0924V13.6004C113.432 13.4044 115.28 12.9704 117.072 12.2984C118.864 11.5984 120.712 10.5484 122.616 9.1484Z" fill="white"/>
</svg>
