<svg width="41" height="34" viewBox="0 0 41 34" fill="none" xmlns="http://www.w3.org/2000/svg">
<path d="M26.0243 10.4685C29.1523 7.32422 32.2523 4.2132 35.3432 1.09305C35.6252 0.808468 35.8118 0.667003 36.1804 1.01928C38.0746 2.82947 39.4545 4.94027 39.9221 7.55612C40.56 11.1248 39.7508 14.3312 37.3835 17.1021C35.8809 18.861 34.0035 20.0232 31.7819 20.6304C31.7062 20.6511 31.6385 20.7017 31.562 20.7409C31.6084 21.0089 31.8392 21.0365 32.0114 21.1089C34.7872 22.2775 37.5648 23.4421 40.3456 24.5985C40.7162 24.7526 40.9161 24.9079 40.7283 25.3704C39.9333 27.3276 38.9002 29.1137 37.2673 30.495C35.4739 32.0119 33.4245 32.921 31.0833 33.1434C27.7808 33.4572 24.8941 32.4622 22.4404 30.2567C20.4592 28.4758 19.2921 26.2203 18.8964 23.569C18.6733 22.0741 18.7239 20.5949 19.116 19.1306C19.1562 18.9804 19.2021 18.8071 18.9378 18.5862C14.3255 23.224 9.70504 27.87 5.09192 32.5086C1.71129 29.8121 -0.024349 25.5376 0.919082 21.2048C1.90266 16.6877 4.78591 13.9191 9.09117 12.5266C9.02194 12.1352 8.71598 12.0871 8.46802 11.9821C5.77029 10.839 3.07328 9.69412 0.369487 8.56572C0.0444294 8.43006 -0.0848573 8.30605 0.0572369 7.93481C1.12179 5.15355 2.76791 2.85712 5.43472 1.42801C8.6036 -0.270145 11.8704 -0.477768 15.1904 0.934194C18.7672 2.45535 20.9258 5.19922 21.8044 8.96892C22.1853 10.6032 22.13 12.2569 21.7509 13.8942C21.6962 14.1305 21.5923 14.3583 21.7468 14.7573C23.195 13.3054 24.5944 11.9023 26.0243 10.4685Z" fill="#1D1A1C"/>
</svg>
